<?xml version="1.0" encoding="UTF-8"?>
<svg id="Ebene_1" data-name="Ebene 1" xmlns="http://www.w3.org/2000/svg" viewBox="0 0 889.34 872.41">
  <defs>
    <style>
      .cls-1 {
        stroke-width: 0px;
      }
    </style>
  </defs>
  <path class="cls-1" d="M545.45,328.65c0,68.79-52.5,125.33-119.63,131.73v348.66h-25.41v-348.66c-67.13-6.4-119.63-62.93-119.63-131.73,0-73.08,59.25-132.33,132.33-132.33s132.33,59.25,132.33,132.33Z"/>
  <path class="cls-1" d="M453.13,509.97c83.61-18.31,146.2-92.78,146.2-181.89,0-13.43-1.43-26.55-4.14-39.18l160.46-48.1c11.34,23.61,35.49,39.97,63.41,39.97,38.75,0,70.29-31.54,70.29-70.29s-31.54-70.29-70.29-70.29-70.29,31.52-70.29,70.29c0,1.94.08,3.86.24,5.76l-160.84,48.21c-25.98-71.51-94.55-122.6-175.05-122.6-43.99,0-84.41,15.26-116.26,40.77l-50.44-64.62c11.62-12.55,18.72-29.33,18.72-47.72C265.14,31.54,233.62,0,194.85,0s-70.29,31.54-70.29,70.29,31.54,70.3,70.29,70.3c11.21,0,21.82-2.64,31.24-7.34l51.99,66.6c-29.11,30.65-47.91,71.21-50.79,116.09h-87.77c-5.76-33-34.62-58.15-69.24-58.15-38.76,0-70.29,31.52-70.29,70.29s31.52,70.29,70.29,70.29c34.21,0,62.81-24.58,69.03-57.01h88.06c5.86,83.26,66.46,151.41,146.04,168.68v-26.13c-69.53-17.72-121.11-80.87-121.11-155.83,0-88.68,72.15-160.81,160.81-160.81s160.81,72.13,160.81,160.81c0,74.85-51.42,137.92-120.79,155.75v26.14ZM194.85,115.18c-24.74,0-44.88-20.14-44.88-44.89s20.14-44.88,44.88-44.88,44.88,20.14,44.88,44.88-20.12,44.89-44.88,44.89ZM70.29,372.96c-24.76,0-44.88-20.14-44.88-44.88s20.12-44.88,44.88-44.88,44.88,20.12,44.88,44.88-20.14,44.88-44.88,44.88ZM819.06,255.36c-24.74,0-44.88-20.14-44.88-44.88s20.14-44.88,44.88-44.88,44.88,20.12,44.88,44.88-20.14,44.88-44.88,44.88Z"/>
  <circle class="cls-1" cx="413.12" cy="809.03" r="63.38"/>
</svg>